<svg aria-hidden="true" style="width:0;height:0;position:absolute;overflow:hidden" xmlns="http://www.w3.org/2000/svg"><defs><symbol id="e16" viewBox="0 0 6 32"><path fill="#7a66cc" style="fill:var(--color1,#7a66cc)" opacity=".8" stroke-width=".696" stroke="#000" d="M.348.348h4.87v31.304H.348z"/></symbol><symbol id="e15" viewBox="0 0 4 32"><path fill="#7a66cc" style="fill:var(--color1,#7a66cc)" opacity=".8" stroke-width=".552" stroke="#000" d="M.276.276h3.862v31.448H.276z"/></symbol><symbol id="e14" viewBox="0 0 18 32"><path fill="#7a66cc" style="fill:var(--color1,#7a66cc)" opacity=".2" stroke-width="2.286" stroke="#000" d="M1.143 1.143h16v29.714h-16z"/></symbol><symbol id="e13" viewBox="0 0 11 32"><path fill="#7a66cc" style="fill:var(--color1,#7a66cc)" opacity=".3" stroke-width="1.333" stroke="#000" d="M.667.667H10v30.667H.667z"/></symbol><symbol id="e12" viewBox="0 0 5 32"><path fill="#7a66cc" style="fill:var(--color1,#7a66cc)" opacity=".6" stroke-width=".593" stroke="#000" d="M.296.296h4.148v31.407H.296z"/></symbol><symbol id="e11" viewBox="0 0 6 32"><path fill="#7a66cc" style="fill:var(--color1,#7a66cc)" opacity=".55" stroke-width=".696" stroke="#000" d="M.348.348h4.87v31.304H.348z"/></symbol><symbol id="e10" viewBox="0 0 7 32"><path fill="#7a66cc" style="fill:var(--color1,#7a66cc)" opacity=".5" stroke-width=".842" stroke="#000" d="M.421.421h5.895v31.158H.421z"/></symbol><symbol id="e9" viewBox="0 0 9 32"><path fill="#7a66cc" style="fill:var(--color1,#7a66cc)" opacity=".4" stroke-width="1.143" stroke="#000" d="M.571.571h8v30.857h-8z"/></symbol><symbol id="e8" viewBox="0 0 5 32"><path fill="#7a66cc" style="fill:var(--color1,#7a66cc)" opacity=".8" stroke-width=".571" stroke="#000" d="M.286.286h4v31.429h-4z"/></symbol><symbol id="e7" viewBox="0 0 6 32"><path fill="#7a66cc" style="fill:var(--color1,#7a66cc)" opacity=".6" stroke-width=".762" stroke="#000" d="M.381.381h5.333v31.238H.381z"/></symbol><symbol id="e6" viewBox="0 0 5 32"><path fill="#7a66cc" style="fill:var(--color1,#7a66cc)" opacity=".9" stroke-width=".615" stroke="#000" d="M.308.308h4.308v31.385H.308z"/></symbol><symbol id="e5" viewBox="0 0 4 32"><path fill="#7a66cc" style="fill:var(--color1,#7a66cc)" stroke-width=".516" stroke="#000" d="M.258.258h3.613v31.484H.258z"/></symbol><symbol id="e4" viewBox="0 0 7 32"><path fill="#7a66cc" style="fill:var(--color1,#7a66cc)" opacity=".6" stroke-width=".842" stroke="#000" d="M.421.421h5.895v31.158H.421z"/></symbol><symbol id="e3" viewBox="0 0 10 32"><path fill="#7a66cc" style="fill:var(--color1,#7a66cc)" opacity=".3" stroke-width="1.231" stroke="#000" d="M.615.615H9.23v30.769H.615z"/></symbol><symbol id="e2" viewBox="0 0 5 32"><path fill="#7a66cc" style="fill:var(--color1,#7a66cc)" opacity=".8" stroke-width=".615" stroke="#000" d="M.308.308h4.308v31.385H.308z"/></symbol><symbol id="e1" viewBox="0 0 6 32"><path fill="#7a66cc" style="fill:var(--color1,#7a66cc)" opacity=".6" stroke-width=".696" stroke="#000" d="M.348.348h4.87v31.304H.348z"/></symbol></defs></svg>